<?xml version="1.0" encoding="UTF-8" standalone="no"?>
<svg
   xmlns:dc="http://purl.org/dc/elements/1.1/"
   xmlns:cc="http://creativecommons.org/ns#"
   xmlns:rdf="http://www.w3.org/1999/02/22-rdf-syntax-ns#"
   xmlns:svg="http://www.w3.org/2000/svg"
   xmlns="http://www.w3.org/2000/svg"
   id="svg8"
   version="1.1"
   viewBox="0 0 7.9374999 7.9374999"
   height="30"
   width="30">
  <defs
     id="defs2">
    <marker
       style="overflow:visible;"
       id="Arrow1Lend"
       refX="0.0"
       refY="0.0"
       orient="auto">
      <path
         transform="scale(0.8) rotate(180) translate(12.5,0)"
         style="fill-rule:evenodd;stroke:#000000;stroke-width:1.0pt;"
         d="M 0.0,0.0 L 5.0,-5.0 L -12.5,0.0 L 5.0,5.0 L 0.0,0.0 z "
         id="path7142" />
    </marker>
    <marker
       style="overflow:visible"
       id="Arrow1Lstart"
       refX="0.0"
       refY="0.0"
       orient="auto">
      <path
         transform="scale(0.8) translate(12.5,0)"
         style="fill-rule:evenodd;stroke:#000000;stroke-width:1.0pt"
         d="M 0.0,0.0 L 5.0,-5.0 L -12.5,0.0 L 5.0,5.0 L 0.0,0.0 z "
         id="path7139" />
    </marker>
  </defs>
  <metadata
     id="metadata5">
    <rdf:RDF>
      <cc:Work
         rdf:about="">
        <dc:format>image/svg+xml</dc:format>
        <dc:type
           rdf:resource="http://purl.org/dc/dcmitype/StillImage" />
        <dc:title></dc:title>
      </cc:Work>
    </rdf:RDF>
  </metadata>
  <g
     transform="translate(0,5.2916667)"
     id="layer2">
    <g
       transform="translate(-0.03307291,-0.09921875)"
       id="g7787">
      <path
         style="fill:none;fill-opacity:1;stroke:#37483e;stroke-width:0.40000001;stroke-linecap:butt;stroke-linejoin:bevel;stroke-miterlimit:0;stroke-dasharray:none;stroke-opacity:1;paint-order:markers fill stroke"
         d="M 5.0369016,-4.7924724 C 4.4865519,-4.8546334 4.6992893,-3.8954863 4.0080241,-3.8886516 3.270674,-3.8813612 3.5406953,-4.9776502 2.8416868,-4.742863 2.1426784,-4.5080758 3.020002,-3.7967193 2.4277587,-3.3574179 1.8355153,-2.9181164 1.4093575,-3.963916 0.9818522,-3.3631023 c -0.42750533,0.6008138 0.6999605,0.6607436 0.4790405,1.3642577 -0.2209201,0.7035144 -1.18034536,0.1080767 -1.17305498,0.8454265 0.00729,0.73734987 0.95480418,0.1226469 1.18959138,0.82165537 C 1.7122163,0.3672458 0.585959,0.44955344 1.0252604,1.0417968 1.4645618,1.6340401 1.8698364,0.5801851 2.4706501,1.0076904 3.071464,1.4351957 2.2089694,2.1634303 2.9124835,2.3843505 3.6159979,2.6052705 3.3244175,1.5146918 4.0617673,1.5074015 4.7991174,1.5001109 4.5290961,2.5964 5.2281046,2.3616128 5.9271132,2.1268257 5.0497895,1.4154691 5.6420328,0.97616766 6.2342761,0.5368662 6.6604339,1.5826659 7.0879392,0.98185223 7.5154447,0.38103826 6.3879787,0.32110855 6.6088989,-0.38240556 6.8298188,-1.0859199 7.7892443,-0.4904823 7.7819537,-1.2278321 7.7746634,-1.9651819 6.8271494,-1.3504789 6.5923624,-2.0494874 6.3575752,-2.7484959 7.4838326,-2.8308036 7.0445311,-3.4230469 6.6052297,-4.0152903 6.1999549,-2.9614352 5.5991412,-3.3889405 4.9983275,-3.8164458 5.8608221,-4.5446806 5.157308,-4.7656006 5.113338,-4.7794086 5.073592,-4.7883286 5.0369016,-4.7924724 Z M 4.0183593,-3.3072917 A 2.0174479,2.1166665 0 0 1 6.0358072,-1.1906251 2.0174479,2.1166665 0 0 1 4.0183593,0.92604155 2.0174479,2.1166665 0 0 1 2.0009114,-1.1906251 2.0174479,2.1166665 0 0 1 4.0183593,-3.3072917 Z"
         id="path7503" />
      <path
         style="fill:#37483e;fill-opacity:1;stroke:#37483e;stroke-width:0.16535433;stroke-linecap:butt;stroke-linejoin:bevel;stroke-miterlimit:0;stroke-dasharray:none;stroke-opacity:1;paint-order:markers fill stroke"
         d="m 11.149133,28.226033 c -0.493913,-0.214231 -0.536723,-0.428863 -0.31417,-1.575124 0.292762,-1.50788 0.0879,-2.432764 -0.704718,-3.181608 -0.9567002,-0.90386 -2.0669071,-1.069692 -3.3023915,-0.493276 -0.1852565,0.08643 -0.61808,0.312414 -0.96183,0.502184 -0.7378195,0.40732 -0.9326626,0.432458 -1.2036481,0.155287 -0.2809524,-0.287365 -0.4158461,-0.572415 -0.3656073,-0.772582 0.025612,-0.102048 0.3196724,-0.438085 0.7329214,-0.837545 1.0873924,-1.05111 1.430084,-1.668857 1.430084,-2.577919 0,-1.103689 -0.5684115,-2.086925 -1.470631,-2.543891 C 4.5867806,16.697766 4.111399,16.584294 3.2368437,16.483294 2.324212,16.377896 2.0481864,16.302701 1.9584542,16.135035 c -0.033649,-0.06287 -0.061181,-0.295863 -0.061181,-0.517752 0,-0.662627 0.016265,-0.671099 1.8125,-0.944017 C 4.5248184,14.549429 5.1405996,14.275136 5.5719029,13.8438 6.3843638,13.031278 6.6313785,11.651234 6.1441311,10.646825 5.9800348,10.308558 5.7755501,10.065239 5.0449028,9.338842 4.249021,8.5475893 4.1472735,8.4229032 4.1472735,8.2388443 c 0,-0.2320149 0.2732631,-0.656802 0.5312659,-0.8258519 0.1484108,-0.097243 0.1772592,-0.096945 0.4430709,0.00457 0.1563782,0.059721 0.5369037,0.2479276 0.8456122,0.418236 1.4017756,0.7733321 2.274006,0.8646314 3.2689504,0.3421718 0.5692519,-0.2989221 0.9985561,-0.72832 1.2628921,-1.2631662 0.318802,-0.6450537 0.351022,-1.2843328 0.122651,-2.4335533 -0.193283,-0.9726486 -0.204337,-1.2860103 -0.05028,-1.4254296 0.176533,-0.15976 0.549718,-0.2933204 0.819574,-0.2933204 0.306109,0 0.333197,0.035647 0.942476,1.2402729 0.489066,0.9669496 0.912473,1.4914113 1.407693,1.7436704 0.875836,0.4461404 1.93678,0.4383084 2.779799,-0.020521 0.572672,-0.3116865 0.938932,-0.7839914 1.501274,-1.9359387 0.581078,-1.190329 0.613193,-1.2192999 1.171655,-1.0569507 0.391898,0.1139282 0.640866,0.3294226 0.640866,0.5547033 0,0.085755 -0.06161,0.4596897 -0.136907,0.830966 -0.179163,0.8833993 -0.192141,1.9129498 -0.02998,2.3780772 0.326011,0.9350775 1.338177,1.7222743 2.394678,1.8624242 0.618664,0.082069 1.298123,-0.1308558 2.39439,-0.7503367 0.393764,-0.222509 0.795688,-0.4220787 0.893165,-0.4434882 0.22251,-0.048871 0.42426,0.077337 0.673391,0.4212522 0.324911,0.4485269 0.295319,0.5155193 -0.659213,1.4923896 -0.717344,0.7341319 -0.879842,0.9376328 -1.072269,1.3428288 -0.38449,0.809628 -0.357524,1.648562 0.08118,2.525475 0.140634,0.281111 0.329915,0.535 0.539016,0.723 0.579094,0.520655 0.999865,0.671621 2.34811,0.842465 0.708191,0.08974 1.024105,0.156362 1.136938,0.239769 0.205942,0.152233 0.290742,0.568228 0.190913,0.936545 -0.09456,0.348865 -0.217653,0.400145 -1.351976,0.563216 -0.978113,0.140615 -1.451162,0.28374 -1.909155,0.577634 -0.856262,0.549461 -1.373332,1.753201 -1.19651,2.785479 0.128579,0.75064 0.3786,1.144746 1.302626,2.053318 0.454476,0.446875 0.859108,0.877272 0.899183,0.956438 0.148204,0.29277 -0.366782,1.012312 -0.724526,1.012312 -0.08517,0 -0.582732,-0.219771 -1.105693,-0.48838 -1.077083,-0.553224 -1.48095,-0.667224 -2.212349,-0.624484 -0.615756,0.03598 -1.177329,0.290603 -1.692141,0.767227 -0.411495,0.380972 -0.652879,0.782201 -0.792065,1.316572 -0.121418,0.466154 -0.120944,0.859883 0.0018,1.529065 0.05361,0.292188 0.137897,0.752526 0.187302,1.022975 0.108248,0.592566 0.05331,0.76239 -0.302902,0.936409 -0.367356,0.179463 -0.709433,0.205454 -0.863924,0.06564 -0.07099,-0.06424 -0.351954,-0.557476 -0.624364,-1.09607 -0.383872,-0.758966 -0.571344,-1.056537 -0.833358,-1.322772 -0.621902,-0.631918 -1.466913,-0.908015 -2.414772,-0.788997 -1.123382,0.141057 -1.865689,0.825332 -2.49557,2.300474 -0.347539,0.813915 -0.555372,1.070678 -0.863983,1.067393 -0.126404,-0.0013 -0.327426,-0.04478 -0.446716,-0.09652 z m 5.377752,-4.06401 c 1.242518,-0.211911 2.539603,-0.762659 3.495388,-1.484157 1.944747,-1.468042 3.179106,-3.60648 3.504687,-6.071616 0.09847,-0.745576 0.03829,-2.202233 -0.122076,-2.954828 C 22.742017,10.540607 20.523648,8.0124589 17.670648,7.1164393 15.975017,6.5839056 14.098304,6.6061418 12.507669,7.177613 8.461171,8.6314077 6.0864162,12.966327 6.9658481,17.29375 c 0.7271015,3.577851 3.3969009,6.238954 6.9001759,6.8777 0.630031,0.114873 1.959661,0.110162 2.660861,-0.0094 z"
         id="path7783"
         transform="matrix(0.26458333,0,0,0.26458333,0,-5.2916667)" />
    </g>
  </g>
  <g
     transform="translate(-17.816403,-18.031145)"
     id="layer1" />
</svg>
